<svg id="Layer_1" data-name="Layer 1" xmlns="http://www.w3.org/2000/svg" xmlns:xlink="http://www.w3.org/1999/xlink" viewBox="0 0 32 32"><defs><style>.cls-1{fill:#fff;}.cls-2{fill:url(#linear-gradient);}.cls-3{fill:url(#linear-gradient-2);}.cls-4{fill:url(#linear-gradient-3);}.cls-5{fill:url(#linear-gradient-4);}.cls-6{fill:url(#linear-gradient-5);}.cls-7{fill:url(#linear-gradient-6);}</style><linearGradient id="linear-gradient" x1="4.8" y1="24.21" x2="6.33" y2="24.21" gradientUnits="userSpaceOnUse"><stop offset="0" stop-color="#1f2444"/><stop offset="0.22" stop-color="#2d3568"/><stop offset="0.69" stop-color="#515ec1"/><stop offset="1" stop-color="#6a7bff"/></linearGradient><linearGradient id="linear-gradient-2" x1="6.43" y1="18.59" x2="11.02" y2="18.59" xlink:href="#linear-gradient"/><linearGradient id="linear-gradient-3" x1="4.84" y1="22.94" x2="13.93" y2="22.94" xlink:href="#linear-gradient"/><linearGradient id="linear-gradient-4" x1="6.54" y1="18.85" x2="19.2" y2="18.85" xlink:href="#linear-gradient"/><linearGradient id="linear-gradient-5" x1="22.18" y1="8.36" x2="22.74" y2="8.36" xlink:href="#linear-gradient"/><linearGradient id="linear-gradient-6" x1="11.1" y1="11.06" x2="27.55" y2="11.06" xlink:href="#linear-gradient"/></defs><title>Artboard 1</title><rect class="cls-1" x="2" y="2" width="28" height="28" rx="4.99"/><path class="cls-2" d="M4.83,26.56l.1-.36a15.78,15.78,0,0,1,1-2.56c.12-.25.25-.53.4-.83l0-.95c0,.12-.11.25-.16.38A27.14,27.14,0,0,0,4.8,26.53,0,0,0,0,0,4.83,26.56Z"/><path class="cls-3" d="M6.43,22.55a32.24,32.24,0,0,1,3-4.73c.5-.67,1-1.31,1.58-1.92l0-1.27c-.61.67-1.18,1.37-1.72,2.09q-.5.68-1,1.38a26.84,26.84,0,0,0-1.5,2.67c-.13.26-.26.53-.38.8Z"/><path class="cls-4" d="M13.88,19.31a4.13,4.13,0,0,1-1.66.5,13.46,13.46,0,0,0-2.55.67,14.14,14.14,0,0,0-3.25,2.39h0q-.23.44-.39.81c-.51,1.07-1,2.26-1.17,2.87h0a6.75,6.75,0,0,1,4.83-4.11h0l.51-.14A6.48,6.48,0,0,0,13,20.58a6.4,6.4,0,0,0,.92-1.22A0,0,0,0,0,13.88,19.31Z"/><path class="cls-5" d="M19.15,15.09h0a4.34,4.34,0,0,1-1.75.61,4.35,4.35,0,0,1-1.29.1A10.74,10.74,0,0,0,11,16c-.57.65-1.09,1.28-1.55,1.88a32.2,32.2,0,0,0-2.94,4.72,11.71,11.71,0,0,1,3.34-2.42A27,27,0,0,1,13,19.46c1.83-.55.92-.35,3.64-1.58a5.29,5.29,0,0,0,2.54-2.75S19.17,15.07,19.15,15.09Z"/><path class="cls-6" d="M22.74,8.28h0a.13.13,0,0,0-.06-.07.29.29,0,0,0-.21,0h0c-.17.06-.27.18-.25.26s.17.12.31.09S22.75,8.39,22.74,8.28Z"/><path class="cls-7" d="M27.52,6.3A25,25,0,0,0,25,6.7l-.29.06a27.62,27.62,0,0,0-4.91,1.59L18.49,9A25.72,25.72,0,0,0,14,11.81l-.5.41c-.29.24-.58.49-.86.75l-.39.36c-.32.31-.64.63-.94.95l-.22.23h0l0,1.25A26.64,26.64,0,0,1,16,11.47a26,26,0,0,1,6-3c0-.16.12-.33.35-.4a.46.46,0,0,1,.37,0,.26.26,0,0,1,.12.17.42.42,0,0,1-.35.42h0a.42.42,0,0,1-.42-.11,26.48,26.48,0,0,0-10.88,7.25,8.48,8.48,0,0,1,4.3-.27,5.46,5.46,0,0,0,3.81-.76L20.78,14a10.11,10.11,0,0,1,1.06-.48.79.79,0,0,0,.43-.37c.15-.29.31-.57.47-.84h0a22.63,22.63,0,0,1,1.38-2.12,25.69,25.69,0,0,1,3.42-3.88A0,0,0,0,0,27.52,6.3Z"/></svg>