<svg id="Layer_1" data-name="Layer 1" xmlns="http://www.w3.org/2000/svg" xmlns:xlink="http://www.w3.org/1999/xlink" viewBox="0 0 250 250"><defs><style>.cls-1{fill:url(#linear-gradient);}.cls-2{fill:url(#linear-gradient-2);}.cls-3{fill:url(#linear-gradient-3);}.cls-4{fill:url(#linear-gradient-4);}.cls-5{fill:url(#linear-gradient-5);}.cls-6{fill:url(#linear-gradient-6);}</style><linearGradient id="linear-gradient" x1="7.62" y1="205.32" x2="23.37" y2="205.32" gradientUnits="userSpaceOnUse"><stop offset="0" stop-color="#1f2444"/><stop offset="0.22" stop-color="#2d3568"/><stop offset="0.69" stop-color="#515ec1"/><stop offset="1" stop-color="#6a7bff"/></linearGradient><linearGradient id="linear-gradient-2" x1="24.36" y1="147.42" x2="71.67" y2="147.42" xlink:href="#linear-gradient"/><linearGradient id="linear-gradient-3" x1="8.01" y1="192.19" x2="101.66" y2="192.19" xlink:href="#linear-gradient"/><linearGradient id="linear-gradient-4" x1="25.51" y1="150.01" x2="156" y2="150.01" xlink:href="#linear-gradient"/><linearGradient id="linear-gradient-5" x1="186.76" y1="41.95" x2="192.52" y2="41.95" xlink:href="#linear-gradient"/><linearGradient id="linear-gradient-6" x1="72.51" y1="69.75" x2="242.12" y2="69.75" xlink:href="#linear-gradient"/></defs><title>Logomark</title><path class="cls-1" d="M7.85,229.57l1.05-3.73c0-.1,2.74-10.61,10-26.38,1.21-2.63,2.59-5.52,4.14-8.61l.32-9.78c-.56,1.29-1.11,2.59-1.65,3.89A267.79,267.79,0,0,0,7.63,229.21.29.29,0,0,0,7.85,229.57Z"/><path class="cls-2" d="M24.36,188.24a330.28,330.28,0,0,1,30.51-48.77q7.83-10.36,16.35-19.85l.45-13A271,271,0,0,0,54,128.09q-5.16,7-9.86,14.27a270.26,270.26,0,0,0-15.53,27.45q-2,4.09-3.88,8.27Z"/><path class="cls-3" d="M101.2,154.85c-3.62,2-7,3.57-17.11,5.15-6.74,1.06-20.29,4-26.29,6.88-8.95,4.24-19.29,11.74-33.55,24.59v.13h-.14l0,0c-1.5,3-2.85,5.79-4,8.34-5.18,11.05-9.81,23.28-12,29.6a.3.3,0,0,0,.21-.19A69.71,69.71,0,0,1,58,187.06l.18,0c1.77-.39,3.52-.85,5.22-1.37a67.1,67.1,0,0,0,38.25-30.37A.31.31,0,0,0,101.2,154.85Z"/><path class="cls-4" d="M155.5,111.28h0l-.08.06c-5.16,3.83-11.32,4.92-18,6.39a47.13,47.13,0,0,1-13.32,1c-3.11-.22-29.18-6.2-52.26,2.11-5.93,6.6-11.24,13.12-16,19.38a330.57,330.57,0,0,0-30.34,48.58c14.62-13.37,24.87-21.24,34.41-24.88,12.28-4.71,25.42-5.53,32.26-7.58,18.87-5.64,9.52-3.59,37.61-16.22,12.18-5.48,20.76-16.58,26.18-28.45A.31.31,0,0,0,155.5,111.28Z"/><path class="cls-5" d="M192.5,41.13h0a1.13,1.13,0,0,0-.55-.78,3.12,3.12,0,0,0-2.25-.23l-.35.09c-1.76.53-2.76,1.78-2.56,2.58s1.72,1.34,3.19,1S192.67,42.18,192.5,41.13Z"/><path class="cls-6" d="M241.78,20.68q-13.08,1.39-26.24,4.12l-3,.63A270.72,270.72,0,0,0,162,41.86q-6.73,2.94-13.25,6.24a267.44,267.44,0,0,0-45.85,29.37c-1.73,1.38-3.45,2.78-5.14,4.19q-4.53,3.8-8.87,7.76-2,1.85-4,3.73-5,4.78-9.78,9.8c-.74.77-1.46,1.56-2.19,2.34h.07l-.43,12.9A283,283,0,0,1,123.31,74a269.13,269.13,0,0,1,62-31c-.28-1.66,1.26-3.45,3.6-4.15a4.69,4.69,0,0,1,3.81.3A2.59,2.59,0,0,1,194,40.89c.3,1.84-1.29,3.73-3.61,4.3l-.16,0a4.29,4.29,0,0,1-4.37-1.18c-50,17.49-86.57,46.75-112.17,74.76C96,111.77,114.51,115,118,116c3.2.88,20.48,3.43,39.25-7.84,1-.6,13-6.59,15.09-7.69a107.4,107.4,0,0,1,10.92-4.9,8.46,8.46,0,0,0,4.4-3.89Q190,87.31,192.52,83h0q6.58-11.26,14.22-21.85A270.12,270.12,0,0,1,242,21.21.31.31,0,0,0,241.78,20.68Z"/></svg>