<svg id="Layer_1" data-name="Layer 1" xmlns="http://www.w3.org/2000/svg" xmlns:xlink="http://www.w3.org/1999/xlink" viewBox="0 0 250 68"><defs><style>.cls-1{fill:#121b49;}.cls-2{fill:url(#linear-gradient);}.cls-3{fill:url(#linear-gradient-2);}.cls-4{fill:url(#linear-gradient-3);}.cls-5{fill:url(#linear-gradient-4);}.cls-6{fill:url(#linear-gradient-5);}.cls-7{fill:url(#linear-gradient-6);}</style><linearGradient id="linear-gradient" x1="183.01" y1="54.97" x2="187.18" y2="54.97" gradientUnits="userSpaceOnUse"><stop offset="0" stop-color="#1f2444"/><stop offset="0.22" stop-color="#2d3568"/><stop offset="0.69" stop-color="#515ec1"/><stop offset="1" stop-color="#6a7bff"/></linearGradient><linearGradient id="linear-gradient-2" x1="187.44" y1="39.66" x2="199.94" y2="39.66" xlink:href="#linear-gradient"/><linearGradient id="linear-gradient-3" x1="183.11" y1="51.5" x2="207.87" y2="51.5" xlink:href="#linear-gradient"/><linearGradient id="linear-gradient-4" x1="187.74" y1="40.35" x2="222.23" y2="40.35" xlink:href="#linear-gradient"/><linearGradient id="linear-gradient-5" x1="230.37" y1="11.78" x2="231.89" y2="11.78" xlink:href="#linear-gradient"/><linearGradient id="linear-gradient-6" x1="200.16" y1="19.13" x2="245" y2="19.13" xlink:href="#linear-gradient"/></defs><title>Logo</title><path class="cls-1" d="M27,32.24a10,10,0,0,1,3.53,8.1A10,10,0,0,1,27,48.44q-3.52,2.94-9.68,2.94H9.53V61H5V29.3H17.36Q23.51,29.3,27,32.24ZM23.78,45.61a6.39,6.39,0,0,0,2.27-5.27,6.39,6.39,0,0,0-2.27-5.27c-1.51-1.23-3.69-1.84-6.56-1.84H9.53V47.44h7.69C20.09,47.44,22.27,46.83,23.78,45.61Z"/><path class="cls-1" d="M38.4,29.3h4.53V57H60.08V61H38.4Z"/><path class="cls-1" d="M68.87,57.72q-3.54-3.61-3.53-10.41v-18h4.52V47.13q0,10.18,8.92,10.18a8.6,8.6,0,0,0,6.65-2.51c1.54-1.68,2.31-4.23,2.31-7.67V29.3h4.39v18q0,6.84-3.53,10.43c-2.36,2.4-5.64,3.6-9.87,3.6S71.22,60.13,68.87,57.72Z"/><path class="cls-1" d="M132,61l-.05-23.08L120.46,57.13h-2.08L106.93,38V61h-4.34V29.3h3.71l13.21,22.26,13-22.26h3.71l0,31.68Z"/><path class="cls-1" d="M166.54,53.06H149.7L146.22,61h-4.67L155.9,29.3h4.48L174.78,61H170ZM165,49.44l-6.83-15.53-6.83,15.53Z"/><path class="cls-2" d="M183.07,61.38l.28-1a47.24,47.24,0,0,1,2.65-7c.32-.7.68-1.46,1.09-2.28l.09-2.58c-.15.34-.3.68-.44,1A71,71,0,0,0,183,61.28.08.08,0,0,0,183.07,61.38Z"/><path class="cls-3" d="M187.44,50.45a87.66,87.66,0,0,1,8.06-12.89c1.38-1.83,2.82-3.57,4.32-5.25l.12-3.44a72.34,72.34,0,0,0-4.68,5.68c-.91,1.23-1.77,2.49-2.6,3.77a72,72,0,0,0-4.11,7.26q-.53,1.08-1,2.19Z"/><path class="cls-4" d="M207.75,41.63A12.06,12.06,0,0,1,203.23,43a34,34,0,0,0-6.95,1.82c-2.37,1.12-5.1,3.1-8.87,6.5v0h0c-.4.79-.75,1.53-1.07,2.2-1.37,2.93-2.59,6.16-3.18,7.83,0,0,0,0,.06-.05a18.44,18.44,0,0,1,13.15-11.19h0c.47-.1.94-.22,1.39-.36a17.8,17.8,0,0,0,10.11-8A.08.08,0,0,0,207.75,41.63Z"/><path class="cls-5" d="M222.1,30.11h0l0,0a12,12,0,0,1-4.76,1.69,12.42,12.42,0,0,1-3.52.26c-.83-.06-7.72-1.64-13.82.55-1.56,1.75-3,3.47-4.22,5.13a87.16,87.16,0,0,0-8,12.84c3.86-3.54,6.58-5.62,9.1-6.58,3.24-1.24,6.71-1.46,8.52-2,5-1.49,2.52-1,9.95-4.29a14.64,14.64,0,0,0,6.92-7.52A.09.09,0,0,0,222.1,30.11Z"/><path class="cls-6" d="M231.88,11.56h0a.28.28,0,0,0-.14-.2.85.85,0,0,0-.6-.06l-.09,0c-.47.14-.73.47-.68.68s.46.36.85.26S231.93,11.84,231.88,11.56Z"/><path class="cls-7" d="M244.91,6.16q-3.47.38-6.94,1.09l-.78.17a71.21,71.21,0,0,0-13.38,4.34q-1.78.78-3.51,1.65a71.21,71.21,0,0,0-12.12,7.76l-1.36,1.11c-.79.67-1.57,1.35-2.34,2-.36.33-.71.65-1.06,1-.88.84-1.74,1.7-2.58,2.59-.2.2-.39.41-.58.62h0l-.12,3.41a74.83,74.83,0,0,1,13.43-11.7A71.05,71.05,0,0,1,230,12.05c-.08-.44.33-.91.95-1.1a1.25,1.25,0,0,1,1,.08.68.68,0,0,1,.33.47,1.13,1.13,0,0,1-1,1.14h0a1.15,1.15,0,0,1-1.16-.31A72.47,72.47,0,0,0,200.46,32.1a23.3,23.3,0,0,1,11.74-.74,14.75,14.75,0,0,0,10.37-2.08c.26-.16,3.43-1.74,4-2a28.75,28.75,0,0,1,2.88-1.3,2.21,2.21,0,0,0,1.17-1c.41-.77.84-1.54,1.28-2.29h0c1.16-2,2.41-3.91,3.76-5.78A70.76,70.76,0,0,1,245,6.3.08.08,0,0,0,244.91,6.16Z"/></svg>